<svg width="104" height="18" viewBox="0 0 104 18" fill="none" xmlns="http://www.w3.org/2000/svg">
<path d="M9.00445 18C13.9775 18 18.0089 13.9706 18.0089 9C18.0089 4.02944 13.9775 0 9.00445 0C4.03143 0 0 4.02944 0 9C0 13.9706 4.03143 18 9.00445 18Z" fill="#EB001B"/>
<path d="M19.8807 18C24.8537 18 28.8851 13.9706 28.8851 9C28.8851 4.02944 24.8537 0 19.8807 0C14.9076 0 10.8762 4.02944 10.8762 9C10.8762 13.9706 14.9076 18 19.8807 18Z" fill="#F79E1B"/>
<path d="M14.4403 1.81274C16.6084 3.45482 18.0044 6.05701 18.0044 8.98223C18.0044 11.9075 16.6084 14.5141 14.4403 16.1562C12.2722 14.5141 10.8762 11.9119 10.8762 8.98223C10.8762 6.05252 12.2767 3.45482 14.4403 1.81274Z" fill="#FF5F00"/>
<path d="M28.3241 14.9758V15.0521H28.158V15.4828H28.0772V15.0521H27.9111V14.9758H28.3241ZM28.957 14.9758V15.4828H28.8762V15.0656L28.7281 15.4335H28.6383L28.4902 15.07V15.4828H28.4094V14.9758H28.5351L28.6832 15.3392L28.8313 14.9758H28.957Z" fill="#F79E1B"/>
<path d="M103.372 9.30049V9.37676H103.205V9.80746H103.125V9.37676H102.959V9.30049H103.372ZM104 9.30049V9.80746H103.919V9.39022L103.771 9.75811H103.686L103.538 9.3947V9.80746H103.457V9.30049H103.583L103.731 9.66389L103.879 9.30049H104ZM41.8531 3.60707C43.2312 3.60707 44.2052 4.55373 44.2052 5.90866V9.54276H42.9349V6.32591C42.9349 5.35233 42.4322 4.80946 41.5883 4.80946C40.7713 4.80946 40.089 5.34784 40.089 6.33937V9.54725H38.8187V6.3304C38.8187 5.35682 38.316 4.81395 37.4721 4.81395C36.6551 4.81395 35.9728 5.35233 35.9728 6.34385V9.55173H34.7025V3.76409H35.9594V4.46848C36.4262 3.78653 37.1444 3.61155 37.7369 3.61155C38.6212 3.61155 39.3394 4.00188 39.7389 4.64346C40.2416 3.80896 41.1349 3.60707 41.8531 3.60707ZM51.5758 3.75512V9.54276H50.3144V8.84734C49.9149 9.35881 49.3179 9.69081 48.4965 9.69081C46.876 9.69081 45.6012 8.41664 45.6012 6.64894C45.6012 4.88124 46.876 3.60707 48.4965 3.60707C49.3179 3.60707 49.9149 3.94356 50.3144 4.45951V3.75512H51.5758ZM48.6446 4.796C47.5583 4.796 46.8985 5.63498 46.8985 6.64894C46.8985 7.6629 47.5583 8.50188 48.6446 8.50188C49.6905 8.50188 50.3907 7.70328 50.3907 6.64894C50.3907 5.5946 49.6905 4.796 48.6446 4.796ZM57.9318 4.22172L57.3887 5.20427C57.0386 4.98892 56.3204 4.71075 55.6022 4.71075C54.9154 4.71075 54.5069 4.98892 54.5069 5.3972C54.5069 5.80098 54.9289 5.91763 55.463 5.99391L56.06 6.08364C57.3214 6.2631 58.071 6.80148 58.071 7.79301C58.071 8.90567 57.1059 9.68184 55.4361 9.68184C54.8391 9.68184 53.7977 9.56519 52.9538 8.93708L53.5418 7.99042C53.9593 8.30896 54.5069 8.58264 55.4496 8.58264C56.3114 8.58264 56.7648 8.30896 56.7648 7.87825C56.7648 7.55073 56.4506 7.33538 55.7638 7.23668L55.1578 7.16041C53.8785 6.98543 53.1962 6.39321 53.1962 5.46449C53.1962 4.31594 54.1164 3.61155 55.5887 3.61155C56.4954 3.61155 57.3348 3.83588 57.9318 4.22172ZM63.3947 3.75512V4.90368H61.1772V7.42062C61.1772 8.20128 61.5902 8.50188 62.0974 8.50188C62.4879 8.50188 62.9189 8.32691 63.2645 8.11155L63.7672 9.12102C63.3004 9.43508 62.7169 9.6953 61.9897 9.6953C60.679 9.6953 59.9114 8.99091 59.9114 7.44754V4.90368H58.7578V3.75512H59.9114V2.00537H61.1817V3.75512H63.3947ZM67.2909 3.60707C68.9113 3.60707 70.0201 4.84086 70.029 6.64445C70.029 6.80597 70.0156 6.97197 70.0066 7.11554H65.7288C65.8994 8.15642 66.6311 8.58713 67.4525 8.58713C68.0315 8.58713 68.651 8.35831 69.1268 7.97696L69.7552 8.87875C69.0505 9.48443 68.2515 9.6953 67.3762 9.6953C65.6435 9.6953 64.4136 8.48842 64.4136 6.65343C64.4091 4.83638 65.5897 3.60707 67.2909 3.60707ZM67.2685 4.7287C66.3662 4.7287 65.868 5.30746 65.7333 6.15542H68.7363C68.5971 5.25363 68.0719 4.7287 67.2685 4.7287ZM74.4146 3.60707C74.8006 3.60707 75.0969 3.65642 75.3886 3.76858L75.0879 5.02033C74.823 4.88124 74.437 4.80946 74.1273 4.80946C73.3238 4.80946 72.7492 5.37925 72.7492 6.3618V9.54276H71.4879V3.75512H72.7403V4.40567C73.1173 3.85831 73.7098 3.60707 74.4146 3.60707ZM79.644 3.60707C81.2644 3.60707 82.5392 4.88124 82.5392 6.64894C82.5392 8.41664 81.2644 9.69081 79.644 9.69081C78.8225 9.69081 78.23 9.35881 77.8305 8.85183V11.9565H76.5692V3.75512H77.8305V4.44156C78.23 3.93907 78.8225 3.60707 79.644 3.60707ZM79.4914 4.796C78.4455 4.796 77.7452 5.5946 77.7452 6.64894C77.7452 7.70328 78.4455 8.50188 79.4914 8.50188C80.5776 8.50188 81.2375 7.6629 81.2375 6.64894C81.2375 5.63498 80.5776 4.796 79.4914 4.796ZM89.5507 3.75512V9.54276H88.2893V8.84734C87.8898 9.35881 87.2928 9.69081 86.4714 9.69081C84.8509 9.69081 83.5761 8.41664 83.5761 6.64894C83.5761 4.88124 84.8509 3.60707 86.4714 3.60707C87.2928 3.60707 87.8898 3.94356 88.2893 4.45951V3.75512H89.5507ZM86.6195 4.796C85.5332 4.796 84.8734 5.63498 84.8734 6.64894C84.8734 7.6629 85.5332 8.50188 86.6195 8.50188C87.6654 8.50188 88.3656 7.70328 88.3656 6.64894C88.3656 5.5946 87.6654 4.796 86.6195 4.796ZM95.9067 4.22172L95.3636 5.20427C95.0135 4.98892 94.2953 4.71075 93.5771 4.71075C92.8903 4.71075 92.4818 4.98892 92.4818 5.3972C92.4818 5.80098 92.9038 5.91763 93.4379 5.99391L94.0349 6.08364C95.2963 6.2631 96.0459 6.80148 96.0459 7.79301C96.0459 8.90567 95.0808 9.68184 93.411 9.68184C92.814 9.68184 91.7726 9.56519 90.9287 8.93708L91.5167 7.99042C91.9342 8.30896 92.4818 8.58264 93.4245 8.58264C94.2863 8.58264 94.7397 8.30896 94.7397 7.87825C94.7397 7.55073 94.4255 7.33538 93.7387 7.23668L93.1327 7.16041C91.8534 6.98543 91.1711 6.39321 91.1711 5.46449C91.1711 4.31594 92.0913 3.61155 93.5636 3.61155C94.4703 3.61155 95.3097 3.83588 95.9067 4.22172ZM101.908 4.22172L101.365 5.20427C101.015 4.98892 100.297 4.71075 99.5785 4.71075C98.8918 4.71075 98.4833 4.98892 98.4833 5.3972C98.4833 5.80098 98.9052 5.91763 99.4394 5.99391L100.036 6.08364C101.298 6.2631 102.047 6.80148 102.047 7.79301C102.047 8.90567 101.082 9.68184 99.4125 9.68184C98.8155 9.68184 97.7741 9.56519 96.9302 8.93708L97.5182 7.99042C97.9357 8.30896 98.4833 8.58264 99.4259 8.58264C100.288 8.58264 100.741 8.30896 100.741 7.87825C100.741 7.55073 100.427 7.33538 99.7401 7.23668L99.1342 7.16041C97.8549 6.98543 97.1726 6.39321 97.1726 5.46449C97.1726 4.31594 98.0928 3.61155 99.5651 3.61155C100.472 3.61155 101.311 3.83588 101.908 4.22172ZM36.2332 12.6699C36.9963 12.6699 37.5933 13.2666 37.5933 14.1011C37.5933 14.9356 36.9963 15.5323 36.2332 15.5323C35.8471 15.5323 35.5688 15.3753 35.3803 15.1375V15.4605H34.7878V11.3733H35.3803V13.0647C35.5644 12.8269 35.8471 12.6699 36.2332 12.6699ZM36.1614 13.2307C35.6721 13.2307 35.3399 13.6076 35.3399 14.1011C35.3399 14.5946 35.6676 14.9715 36.1614 14.9715C36.6731 14.9715 36.9828 14.5767 36.9828 14.1011C36.9828 13.6255 36.6731 13.2307 36.1614 13.2307ZM40.7534 12.7417L38.6032 16.6135H37.9434L38.9175 14.9042L37.7145 12.7417H38.3788L39.2541 14.303L40.098 12.7417H40.7534ZM45.8122 12.6699C46.4586 12.6699 46.9164 13.114 46.9164 13.7511V15.4605H46.3194V13.9485C46.3194 13.4909 46.0815 13.2352 45.6865 13.2352C45.305 13.2352 44.9818 13.4864 44.9818 13.953V15.4605H44.3848V13.9485C44.3848 13.4909 44.1514 13.2352 43.7519 13.2352C43.3703 13.2352 43.0471 13.4864 43.0471 13.953V15.4605H42.4501V12.7417H43.0426V13.0737C43.2626 12.7506 43.5992 12.6699 43.8775 12.6699C44.2905 12.6699 44.6317 12.8538 44.8157 13.1544C45.0536 12.7686 45.4755 12.6699 45.8122 12.6699ZM50.3234 12.7417V15.4605H49.7309V15.133C49.5424 15.3753 49.2641 15.5323 48.878 15.5323C48.1149 15.5323 47.5179 14.9356 47.5179 14.1011C47.5179 13.2666 48.1194 12.6699 48.878 12.6699C49.2641 12.6699 49.5468 12.8269 49.7309 13.0692V12.7417H50.3234ZM48.9453 13.2307C48.4336 13.2307 48.1239 13.6255 48.1239 14.1011C48.1239 14.5767 48.4336 14.9715 48.9453 14.9715C49.4346 14.9715 49.7668 14.5946 49.7668 14.1011C49.7668 13.6031 49.4391 13.2307 48.9453 13.2307ZM53.2546 12.9615L52.9987 13.4236C52.8326 13.3204 52.496 13.1903 52.1593 13.1903C51.8361 13.1903 51.6431 13.3204 51.6431 13.5133C51.6431 13.7018 51.8406 13.7556 52.092 13.796L52.3748 13.8409C52.9673 13.9261 53.3219 14.1774 53.3219 14.644C53.3219 15.1644 52.8685 15.5323 52.083 15.5323C51.8002 15.5323 51.3154 15.4784 50.9159 15.1823L51.1897 14.7382C51.3872 14.8907 51.6431 15.0163 52.0875 15.0163C52.4915 15.0163 52.7069 14.8907 52.7069 14.6843C52.7069 14.5318 52.5588 14.4286 52.2356 14.3837L51.9528 14.3478C51.3513 14.2671 51.0281 13.9889 51.0281 13.5492C51.0281 13.0109 51.4591 12.6789 52.1548 12.6789C52.5768 12.6744 52.9718 12.7776 53.2546 12.9615ZM55.7638 12.7417V13.28H54.7224V14.4645C54.7224 14.8324 54.9154 14.9715 55.1533 14.9715C55.3373 14.9715 55.5393 14.8907 55.7009 14.7875L55.9343 15.2631C55.7144 15.4112 55.4406 15.5323 55.0994 15.5323C54.4845 15.5323 54.1209 15.2003 54.1209 14.478V13.28H53.5777V12.7417H54.1209V11.9206H54.7179V12.7417H55.7638ZM57.5368 12.6699C58.2999 12.6699 58.8206 13.2486 58.8251 14.0966C58.8251 14.1729 58.8206 14.2491 58.8116 14.3164H56.8007C56.8815 14.8055 57.2226 15.0074 57.6087 15.0074C57.8825 15.0074 58.1697 14.8997 58.3942 14.7202L58.6904 15.142C58.3583 15.4246 57.9812 15.5233 57.5727 15.5233C56.7558 15.5233 56.1812 14.9535 56.1812 14.0921C56.1857 13.2486 56.7378 12.6699 57.5368 12.6699ZM57.5279 13.1993C57.1059 13.1993 56.868 13.473 56.8052 13.8678H58.2146C58.1518 13.446 57.9049 13.1993 57.5279 13.1993ZM60.8271 12.6699C61.0066 12.6699 61.1458 12.6923 61.2849 12.7461L61.1413 13.3339C61.0156 13.2666 60.8361 13.2352 60.6879 13.2352C60.3109 13.2352 60.0416 13.4999 60.0416 13.9665V15.4605H59.449V12.7417H60.0371V13.0467C60.2166 12.791 60.4949 12.6699 60.8271 12.6699ZM62.9054 12.6699C63.3094 12.6699 63.6819 12.8179 63.9198 13.1051L63.5383 13.5089C63.3498 13.3294 63.1478 13.2262 62.8829 13.2262C62.4251 13.2262 62.0795 13.5851 62.0795 14.0966C62.0795 14.6081 62.4251 14.967 62.8829 14.967C63.1433 14.967 63.3767 14.8458 63.5518 14.6843L63.9198 15.0926C63.673 15.3797 63.3094 15.5278 62.9054 15.5278C62.0391 15.5278 61.4735 14.9131 61.4735 14.0966C61.4735 13.2845 62.0391 12.6699 62.9054 12.6699ZM67.0306 12.7417V15.4605H66.438V15.133C66.2495 15.3753 65.9712 15.5323 65.5852 15.5323C64.8221 15.5323 64.2251 14.9356 64.2251 14.1011C64.2251 13.2666 64.8221 12.6699 65.5852 12.6699C65.9712 12.6699 66.254 12.8269 66.438 13.0692V12.7417H67.0306ZM65.657 13.2307C65.1453 13.2307 64.8356 13.6255 64.8356 14.1011C64.8356 14.5767 65.1453 14.9715 65.657 14.9715C66.1463 14.9715 66.4784 14.5946 66.4784 14.1011C66.4739 13.6031 66.1463 13.2307 65.657 13.2307ZM69.2345 12.6699C69.4141 12.6699 69.5532 12.6923 69.6924 12.7461L69.5488 13.3339C69.4231 13.2666 69.2435 13.2352 69.0954 13.2352C68.7183 13.2352 68.449 13.4999 68.449 13.9665V15.4605H67.8565V12.7417H68.4445V13.0467C68.6196 12.791 68.8979 12.6699 69.2345 12.6699ZM71.3487 12.6699C71.7348 12.6699 72.0176 12.8269 72.2016 13.0692V11.3733H72.7941V15.4605H72.2016V15.133C72.0131 15.3753 71.7348 15.5323 71.3487 15.5323C70.5857 15.5323 69.9886 14.9356 69.9886 14.1011C69.9886 13.2666 70.5901 12.6699 71.3487 12.6699ZM71.4206 13.2307C70.9088 13.2307 70.5991 13.6255 70.5991 14.1011C70.5991 14.5767 70.9088 14.9715 71.4206 14.9715C71.9098 14.9715 72.242 14.5946 72.242 14.1011C72.242 13.6031 71.9143 13.2307 71.4206 13.2307Z" fill="black"/>
</svg>
